<svg xmlns="http://www.w3.org/2000/svg" class="w-6 h-6 mr-2 text-midnight flex-shrink-0" viewBox="0 0 24 24">
  <path d="M22.3 4.2l-2.8-.4-.4-2.8-3 3c-1.5-.9-3.3-1.5-5.2-1.5C5.4 2.5 1 7 1 12.4c0 5.5 4.4 9.9 9.9 9.9s9.9-4.4 9.9-9.9c0-1.9-.5-3.7-1.5-5.2zm-5.6.9l.4-.4 1.2-1.2.2 1.4 1.4.1-1.2 1.2-.4.4-.1.1-.6-.1-.8-.1-.1-.8-.1-.6zm2.9 7.3c0 4.8-3.9 8.7-8.7 8.7s-8.7-3.9-8.7-8.7 3.9-8.7 8.7-8.7c1.6 0 3.1.4 4.4 1.2l.3 2-.4.4c-1.2-1-2.6-1.5-4.3-1.5a6.7 6.7 0 106.7 6.7c0-1.6-.6-3.1-1.6-4.3l.4-.4 2.1.3c.7 1.2 1.1 2.7 1.1 4.3zm-8.4.5l1.6-1.6c.2.3.3.7.3 1.1 0 1.2-1 2.2-2.2 2.2s-2.2-1-2.2-2.2 1-2.2 2.2-2.2c.4 0 .8.1 1.1.3l-1.6 1.6zm1.6-3.3c-.5-.3-1.2-.6-1.9-.6-1.9 0-3.4 1.6-3.4 3.4 0 1.9 1.5 3.4 3.4 3.4s3.4-1.5 3.4-3.4c0-.7-.2-1.4-.6-2L15.2 9c.8.9 1.2 2.1 1.2 3.5 0 3-2.5 5.5-5.5 5.5s-5.5-2.5-5.5-5.5S7.9 7 10.9 7c1.3 0 2.5.5 3.4 1.2z" fill="currentColor"/>
</svg>