<svg xmlns="http://www.w3.org/2000/svg" class="w-6 h-6 mr-2 text-midnight flex-shrink-0" fill="none" viewBox="0 0 24 24">
  <path clip-rule="evenodd" d="M3.7 7.69C3.7 3.45 8.25 0 13.84 0S24 3.45 24 7.69a6.41 6.41 0 01-1.69 4.19L22 16.32 18.14 15c.088.367.139.743.15 1.12 0 3.87-4.15 7-9.15 7a11.79 11.79 0 01-3.46-.52l-3.94 1.34-.28-4A5.79 5.79 0 010 16.16c0-2.43 1.64-4.63 4.3-5.89a6.06 6.06 0 01-.6-2.58zM5.91 21.1a10.31 10.31 0 003.23.52c4.22 0 7.65-2.45 7.65-5.51a3.931 3.931 0 00-.17-1.08c-.913.201-1.845.302-2.78.3a11 11 0 01-8.76-3.83c-2.21 1-3.58 2.74-3.58 4.61a4.41 4.41 0 001.24 3l.18.19.18 2.6 2.57-.9zm14.98-9.84l.17-.19a5 5 0 001.41-3.38c0-3.41-3.87-6.19-8.63-6.19S5.16 4.32 5.16 7.73s3.88 6.19 8.64 6.19c1.237.007 2.467-.19 3.64-.58l.24-.08 3 1zm-1.48-3.59a1 1 0 11-2 0 1 1 0 012 0zm-5.5 1a1 1 0 100-2 1 1 0 000 2zM8.864 6.839a1 1 0 111.111 1.663 1 1 0 01-1.11-1.663z" fill="currentColor" fill-rule="evenodd"/>
</svg>