<svg xmlns="http://www.w3.org/2000/svg" class="w-6 h-6 mr-2 text-midnight flex-shrink-0" fill="none" viewBox="0 0 24 24">
  <path d="M24 1.37L23.09.18l-2.51 1.9A11.46 11.46 0 0018.17 0l-.81 1.26a9.87 9.87 0 012 1.73L18.08 4a8.29 8.29 0 00-14.4 5.52A8 8 0 005 13.9l-1.29 1a9.39 9.39 0 01-1.15-2.36L1.1 13a11.27 11.27 0 001.37 2.81L0 17.67l.91 1.19L3.4 17a11.43 11.43 0 007.06 3.76c.21 0 .42 0 .63.05v1.72H5.82V24h12.05v-1.5h-5.28v-1.68A11.4 11.4 0 0023.29 11a11.24 11.24 0 00-1.81-7.74zM12 2.79a6.73 6.73 0 11-6.82 6.73A6.77 6.77 0 0112 2.79zm9.83 8a9.941 9.941 0 01-17.24 5.28l1.3-1a8.29 8.29 0 0014.37-5.55A8.15 8.15 0 0019 5.16l1.3-1a9.78 9.78 0 011.5 6.66z" fill="currentColor"/>
</svg>