<svg xmlns="http://www.w3.org/2000/svg" class="w-6 h-6 mr-2 text-midnight flex-shrink-0" fill="none" viewBox="0 0 24 24">
  <clipPath id="a">
    <path d="M0 0h24v24H0z"/>
  </clipPath>
  <g clip-path="url(#a)">
    <path clip-rule="evenodd" d="M23.79.69L23.66.3l-.41-.09C18.12-1 12.82 3 9.5 6.27l-5.68-.75L0 9.91l1.74 1.69L5.19 10l.58.57 1 1L5 14l4.94 5 2.78-1.62.85.84.53.53-1.56 3.51 1.71 1.72 4.28-4-.84-5.55C25.503 6.44 23.93 1.158 23.795.707zm-1.34.89A8.41 8.41 0 0122 5.24a18 18 0 00-3.24-3.32 8.32 8.32 0 013.69-.34zm-5.32 1A15.84 15.84 0 0121.32 7c-1.16 2.45-3.39 5.59-7.67 9.23l-5.88-5.84C9 8.9 12.81 4.58 17.13 2.56zm-15 7.19l2.3-2.64 3.78.5c-.65.67-1.16 1.27-1.51 1.7L5.48 8.15zm8.06 7.36l-3.26-3.27.89-1.32 3.79 3.73zm4.21 4.68l1.52-3.41-1.16-1.17c.58-.5 1.13-1 1.64-1.47l.6 3.67zm2.72-12.69a2.49 2.49 0 10.04-4.98 2.49 2.49 0 00-.04 4.98zm0-3.48a1 1 0 110 2 1 1 0 010-2zM.179 22.063A2.33 2.33 0 01.13 20.77c.62-2.19 4.87-3.31 5.69-3.48L7 17l-.25 1.16c-.2.85-1.32 5.15-3.49 5.77-.18.045-.365.069-.55.07a2.51 2.51 0 01-1.8-.87 2.33 2.33 0 01-.731-1.067zm2.63.42l.04-.003c.76-.21 1.56-1.86 2.07-3.39-1.51.52-3.13 1.32-3.35 2.09v.002c-.02.091-.086.39.41.898.441.449.71.417.83.404z" fill="currentColor" fill-rule="evenodd"/>
  </g>
</svg>