<svg xmlns="http://www.w3.org/2000/svg" class="w-6 h-6 mr-2 text-midnight flex-shrink-0" fill="none" viewBox="0 0 24 24">
  <clipPath id="a">
    <path d="M0 0h24v24H0z"/>
  </clipPath>
  <g clip-path="url(#a)">
    <path d="M19.89 15.51l-4.77-8.4a4.19 4.19 0 001.13-2.86 4.25 4.25 0 10-7.32 2.93l-4.45 8.34h-.23a4.25 4.25 0 104.12 5.23h7.26a4.239 4.239 0 008.33-.438 4.24 4.24 0 00-4.07-4.782zM12 1.5A2.75 2.75 0 1112 7a2.75 2.75 0 010-5.5zm-7.75 21a2.75 2.75 0 110-5.5 2.75 2.75 0 010 5.5zm11.3-3.27h-7.1A4.27 4.27 0 006 15.88l4.17-7.82A4.23 4.23 0 0012 8.5a4.1 4.1 0 001.91-.5l4.4 7.75a4.23 4.23 0 00-2.76 3.48zm4.2 3.27a2.75 2.75 0 110-5.5 2.75 2.75 0 010 5.5z" fill="currentColor"/>
  </g>
</svg>