<svg xmlns="http://www.w3.org/2000/svg" class="w-6 h-6 mr-2 text-midnight flex-shrink-0" fill="none" viewBox="0 0 24 24">
  <clipPath id="a">
    <path d="M0 0h24v24H0z"/>
  </clipPath>
  <g clip-path="url(#a)" fill="currentColor">
    <path d="M19 17.87a7.44 7.44 0 00.51-3.79l-.06-.61-.6-.07A8.28 8.28 0 0015 14a11 11 0 00-2.48-5.34.79.79 0 00-.52-.28.73.73 0 00-.55.25 9.12 9.12 0 00-2.54 5.45 8.47 8.47 0 00-4.08-.76h-.64v.64a7.63 7.63 0 00.69 4A10.6 10.6 0 00.6 20.35l-.54.54.56.54A8.31 8.31 0 006.41 24 9.28 9.28 0 0012 21.87 8 8 0 0017.28 24a9.61 9.61 0 006.13-2.59l.53-.54-.54-.52a8.64 8.64 0 00-4.4-2.48zm-1.66-.11a8.4 8.4 0 00-2.85.68 8.249 8.249 0 00.65-2.83 5.93 5.93 0 012.86-.74 4.87 4.87 0 01-.69 2.89zM12 10.32a7.62 7.62 0 010 9.35 7.6 7.6 0 010-9.35zm-6.36 4.49a6.12 6.12 0 013.32 1 9.58 9.58 0 00.67 2.48 7.22 7.22 0 00-3.19-.58 5.14 5.14 0 01-.8-2.9zm-3.36 6.08a6.57 6.57 0 018.59 0 6.58 6.58 0 01-8.59 0zm10.87 0a6.58 6.58 0 018.6 0 6.59 6.59 0 01-8.6 0zM12.75 0h-1.5v5.62h1.5zM1.058 4.301l-1.06 1.061 3.975 3.973 1.06-1.061zM22.945 4.308L18.969 8.28l1.06 1.06 3.976-3.971z"/>
  </g>
</svg>