<svg xmlns="http://www.w3.org/2000/svg" class="w-6 h-6 mr-2 text-midnight flex-shrink-0" fill="none" viewBox="0 0 24 24">
  <clipPath id="a">
    <path d="M0 0h24v24H0z"/>
  </clipPath>
  <g clip-path="url(#a)" fill="currentColor">
    <path d="M21 9a9 9 0 10-15 6.63v5.29h2.33a3.71 3.71 0 007.32 0h2.71V15.57A9.53 9.53 0 0021 9zM4.5 9a7.5 7.5 0 1115 0 7.909 7.909 0 01-2.39 5.69l-.22.21v1.11H7.45V15L7 14.51A7.42 7.42 0 014.5 9zM12 22.51a2.21 2.21 0 01-2.12-1.59h4.25A2.23 2.23 0 0112 22.51zm-4.52-3.09v-1.9h9.38v1.9z"/>
    <path d="M16.27 9.65h1.5a6.22 6.22 0 00-1.88-4.49 6.32 6.32 0 00-4.5-1.86v1.5a4.89 4.89 0 013.45 1.42 4.831 4.831 0 011.43 3.43zM1.04 0L.124 1.186l2.713 2.099.918-1.186zM2.29 4.82H0v1.5h2.29zM22.954-.002l-2.712 2.099.918 1.186 2.712-2.099zM24 4.82h-2.29v1.5H24z"/>
  </g>
</svg>