<svg xmlns="http://www.w3.org/2000/svg" class="w-6 h-6 mr-2 text-midnight flex-shrink-0" fill="none" viewBox="0 0 24 24">
  <path d="M23.04 1.67V.96h-.672C21.84.96 10.262.672 5.251 5.683c-4.57 4.57-3.12 12.864-2.717 14.765L0 22.983 1.018 24l2.534-2.534c1.7.352 3.43.533 5.165.537 3.168 0 6.998-.652 9.6-3.254C23.328 13.738 23.04 2.16 23.04 1.67zm-5.76 16.061c-3.456 3.485-9.773 2.928-12.48 2.496l4.08-4.08h5.76v-1.44h-4.33l3.581-3.58h4.685v-1.44H15.36l2.746-2.746-1.047-1.018-2.745 2.717V5.424h-1.44v4.685l-3.581 3.58V9.323h-1.44v5.76L3.773 19.2c-.432-2.707-.96-9.024 2.505-12.48 3.908-3.907 12.768-4.272 15.36-4.3-.067 2.534-.432 11.404-4.358 15.311z" fill="currentColor"/>
</svg>