<svg xmlns="http://www.w3.org/2000/svg" class="w-6 h-6 mr-2 text-midnight flex-shrink-0" fill="none" height="26" viewBox="0 0 24 26">
  <g clip-rule="evenodd" fill="currentColor" fill-rule="evenodd">
    <path d="M12.958 7.25a2.465 2.465 0 00-3.508 0l-7.222 7.316a2.568 2.568 0 000 3.58l4.563 4.623a2.468 2.468 0 003.51 0l7.222-7.315c.97-.983.97-2.597 0-3.58zM8.382 6.198a3.965 3.965 0 015.643 0l4.566 4.623a4.068 4.068 0 010 5.687l-7.222 7.316a3.968 3.968 0 01-5.645 0L1.16 19.199a4.068 4.068 0 010-5.686z"/>
    <path d="M14.566 1.612l8.768 8.88-3.59 3.634-8.768-8.88zm-1.482 3.635l6.66 6.745 1.482-1.5-6.66-6.745z"/>
    <path d="M19.722 1.734a2.494 2.494 0 013.547.01L22.2 2.796a.994.994 0 00-1.421 0l-.013.013-.007.007a.682.682 0 00-.21.366l-.001.001c-.109.592-.476 1.041-.996 1.223a1.598 1.598 0 01-1.433-.21l-.002-.002c-.493-.343-.935-.304-1.293-.174a2.078 2.078 0 00-.613.357l.002-.002.002-.002-.513-.547a70.95 70.95 0 01-.513-.547l.002-.002.003-.002.007-.007.02-.019.066-.055a3.576 3.576 0 011.025-.583c.694-.253 1.673-.337 2.663.353l-.43.615.428-.617a.16.16 0 00.075.03l.005-.011a.31.31 0 00.02-.07l.737.136-.738-.134a2.17 2.17 0 01.376-.86 2.474 2.474 0 01.273-.32z"/>
    <path d="M22.202 4.263a1.048 1.048 0 000-1.466l1.067-1.054a2.548 2.548 0 01-.306 3.841 2.144 2.144 0 01-.858.385l-.14-.737.14.737a.277.277 0 00-.074.025v-.005.001l-.002.003-.002.003.004-.002a.096.096 0 000 .026c.003.02.012.046.03.073l-.62.421m0 0l.62-.42c.677.996.593 1.979.347 2.675a3.641 3.641 0 01-.63 1.1l-.018.021-.006.008-.003.002-.001.002-.554-.506a79.968 79.968 0 00-.553-.506l-.001.001.021-.026a2.142 2.142 0 00.33-.597c.132-.37.17-.827-.173-1.332a1.625 1.625 0 01-.207-1.433c.177-.518.618-.895 1.213-1.008a.657.657 0 00.25-.12.964.964 0 00.089-.074l.017-.017-.004.004h.001l.002-.003.002-.002-.001.001.007-.008.013-.013M16.718 11.027H5.41v-1.5h11.308z"/>
  </g>
</svg>