<svg xmlns="http://www.w3.org/2000/svg" class="w-6 h-6 mr-2 text-midnight flex-shrink-0" fill="none" viewBox="0 0 24 24">
  <path d="M16.65 13.84h-.11c-.406-.12-.82-.21-1.24-.27a4.8 4.8 0 00.87-.93 5.47 5.47 0 003.7-1.46 5.53 5.53 0 001.14-3.84L21 6.63h-.68a5.452 5.452 0 00-.68 0 5.58 5.58 0 00-.46-3.95l-.32-.6-.63.26a6.49 6.49 0 00-1.16.68A5.5 5.5 0 0015.24.41L14.69 0l-.46.5A5.22 5.22 0 0012.91 4c.017.183.05.363.1.54a5.49 5.49 0 00-1-.1 5.56 5.56 0 00-1 .1c.046-.177.076-.358.09-.54A5.22 5.22 0 009.78.5L9.32 0l-.54.41a5.48 5.48 0 00-1.85 2.66 6.23 6.23 0 00-1.15-.68l-.63-.26-.32.6a5.63 5.63 0 00-.46 4 3.9 3.9 0 00-.68 0H3v.58a5.53 5.53 0 001.14 3.84 5.47 5.47 0 003.7 1.46c.258.372.564.708.91 1A8.931 8.931 0 007 14l-.2.07C2.54 15.6 0 19 0 23.25V24h24v-.75c0-4.44-2.74-7.95-7.35-9.41zm2.16-3.71A3.33 3.33 0 0117 11a3.34 3.34 0 01.73-1.93 3.3 3.3 0 011.84-.89 3.35 3.35 0 01-.76 1.95zm-.67-6a3.35 3.35 0 01.07 2.09 3.37 3.37 0 01-1.36 1.57 3.35 3.35 0 01-.07-2.09 3.32 3.32 0 011.36-1.55zm-3.25-2a3 3 0 01.8 1.63 2.73 2.73 0 01-.29 1.37 3 3 0 01-.19.36 3 3 0 01-.8-1.62 3.06 3.06 0 01.48-1.73zm.74 7.49A3.63 3.63 0 1112 6a3.65 3.65 0 013.63 3.63zM9.12 2.14a3.06 3.06 0 01.49 1.76 3 3 0 01-.8 1.62 4.13 4.13 0 01-.2-.37 2.79 2.79 0 01-.29-1.38 3 3 0 01.8-1.63zm-3.25 2a3.32 3.32 0 011.36 1.58 3.5 3.5 0 01-.07 2.09A3.37 3.37 0 015.8 6.24a3.35 3.35 0 01.07-2.09zm-.67 6a3.28 3.28 0 01-.74-1.92 3.25 3.25 0 011.83.89A3.29 3.29 0 017 11a3.33 3.33 0 01-1.8-.87zm2.06 5.33h.12A7.811 7.811 0 0110 15h4c.378.002.755.028 1.13.08-.59 2.15-2.69 6.84-9.95 7.46H1.53c.27-3.28 2.33-5.82 5.73-7.08zm3.53 7a11.42 11.42 0 005.8-7.08c3.5 1.24 5.61 3.77 5.89 7.08z" fill="currentColor"/>
</svg>