<svg xmlns="http://www.w3.org/2000/svg" class="w-6 h-6 mr-2 text-midnight flex-shrink-0" fill="none" viewBox="0 0 24 24">
  <clipPath id="a">
    <path d="M0 0h24v24H0z"/>
  </clipPath>
  <g clip-path="url(#a)">
    <path d="M22.15 1.5h2V0H.08v1.5h2c.39 5.25 4.81 8.7 6.75 10.2a.45.45 0 010 .72c-1.94 1.5-6.36 5-6.75 10.2H0v1.5h24.12v-1.5h-2c-.34-4.61-3.77-7.85-6.39-9.91a.82.82 0 010-1.3c2.65-2.06 6.08-5.3 6.42-9.91zM9.59 10.36l-.41-.3C8.6 9.59 8 9.08 7.45 8.54h9.34c-.29.28-.58.54-.87.8a13.44 13.44 0 00-3.77 3.35 11.302 11.302 0 00-2.56-2.33zM20.65 1.5A10.19 10.19 0 0118.19 7H6.05a10.08 10.08 0 01-2.47-5.5zM10.06 22.62a7.219 7.219 0 002.06-2.5 7.31 7.31 0 002.05 2.5zm10.59 0h-2.11a5.68 5.68 0 01-5.67-5.68h-1.5a5.69 5.69 0 01-5.68 5.68H3.58c.35-4 3.46-6.9 6.19-9a1.92 1.92 0 00.56-.71 2.68 2.68 0 011 1.89h1.5a3.58 3.58 0 011.19-2c.13.452.4.851.77 1.14 2.41 1.81 5.51 4.7 5.86 8.68z" fill="currentColor"/>
  </g>
</svg>