<svg xmlns="http://www.w3.org/2000/svg" class="w-6 h-6 mr-2 text-midnight flex-shrink-0" fill="none" viewBox="0 0 24 24">
  <clipPath id="a">
    <path d="M0 0h24v24H0z"/>
  </clipPath>
  <g clip-path="url(#a)" fill="currentColor">
    <path d="M24 14.17L21.46 10v-.36A8.93 8.93 0 0020.14 5l-.22-.37h-1.28a3.07 3.07 0 00-1.06-1.09 1.5 1.5 0 01-.64-.73 3.33 3.33 0 00-3.17-2 2.15 2.15 0 01-1.13-.28 3.73 3.73 0 00-3.84 0 2.18 2.18 0 01-1.13.31 3.33 3.33 0 00-3.17 2 1.5 1.5 0 01-.64.73 3 3 0 00-1.14 1.24H1.41l-.21.39A9 9 0 000 9.64a9.26 9.26 0 003.35 7V24h1.5v-8.06l-.28-.22A7.799 7.799 0 011.5 9.64a7.26 7.26 0 01.8-3.32l16.77-.17A7.45 7.45 0 0120 9.64v.76l2.43 4h-2.71v2h-2.64v1.5h2.64v1.2a1.21 1.21 0 01-.32.76 2.37 2.37 0 01-1.75.54H12.4V24h1.5v-2.06h3.75a3.75 3.75 0 002.83-1 2.64 2.64 0 00.74-1.84v-3.2h1.5a1.229 1.229 0 001-.46 1.58 1.58 0 00.28-1.27zM5.9 3.38a1.86 1.86 0 011.77-1 3.59 3.59 0 001.91-.53 2.25 2.25 0 012.27 0 3.65 3.65 0 001.92.53 1.86 1.86 0 011.77 1 3 3 0 001 1.3l-11.82.11A2.93 2.93 0 005.9 3.38z"/>
    <path d="M18 9.83a.72.72 0 10-1.44-.02.72.72 0 001.44.02z"/>
  </g>
</svg>