<svg xmlns="http://www.w3.org/2000/svg" class="w-6 h-6 mr-2 text-midnight flex-shrink-0" fill="none" viewBox="0 0 24 24">
  <clipPath id="a">
    <path d="M0 0h24v24H0z"/>
  </clipPath>
  <g clip-path="url(#a)">
    <path d="M21 17.44l-1.49-1V13c.06-1.359-.14-2.717-.59-4l-3.2-7.65A2.28 2.28 0 0012.89.12a2.38 2.38 0 00-.89.53 2.34 2.34 0 00-.87-.53 2.26 2.26 0 00-2.82 1.24L5.1 9a10.74 10.74 0 00-.58 4v3.44L3 17.45l-3-2.08v8.69h11.44L24 24v-8.7zM12.93 1.89a.71.71 0 01.42-.35.8.8 0 011 .4l3.2 7.64a9.33 9.33 0 01.45 3.34c-.06 2.1 0 3.84 0 3.91v.37l1.64 1.15-4.39 3a4.66 4.66 0 01-2.49-3.26v-9c0-.07 0-.54.36-.64a.49.49 0 01.49.08.7.7 0 01.21.34l1.51 4.63 1.47-.5-1.51-4.62a2.3 2.3 0 00-.68-1l-1.69-5.1a.47.47 0 01.01-.39zM12 4.33L12.87 7h-.14a2 2 0 00-.68.36 1.75 1.75 0 00-.69-.36h-.2zM6 17.2v-.37c0-.07.07-1.81 0-3.91a9.71 9.71 0 01.49-3.32L9.7 1.92a.79.79 0 011-.38.68.68 0 01.42.35.48.48 0 010 .43l-1.64 5a2.32 2.32 0 00-.74 1.11l-1.5 4.84 1.43.44 1.5-4.84a.86.86 0 01.24-.38.58.58 0 01.54-.09c.26.07.33.37.36.54v9.17a4.81 4.81 0 01-2.56 3.28l-4.4-3.05zm-4.5 5.36v-4.33l6.27 4.34zm8.57-.22A6.5 6.5 0 0012 20.29a6.63 6.63 0 002 2.05l-2 1.34zm12.45.18h-6.27l6.27-4.37z" fill="currentColor"/>
  </g>
</svg>