<svg xmlns="http://www.w3.org/2000/svg" class="w-6 h-6 mr-2 text-midnight flex-shrink-0" fill="none" viewBox="0 0 24 24">
  <clipPath id="a">
    <path d="M0 0h24v24H0z"/>
  </clipPath>
  <g clip-path="url(#a)" fill="currentColor">
    <path d="M16.25 6.83V1.5h1.92V0H5.86v1.5h1.91v5L.48 19.74a3.45 3.45 0 00-.43 2.11A2.38 2.38 0 002.67 24h18.41a3.62 3.62 0 001.76-.44 2.47 2.47 0 00.69-3.56C22.4 18 17 8.24 16.25 6.83zm-7 .09V1.5h5.48v5.72l.1.17c0 .05 1.29 2.35 2.78 5.05a5.84 5.84 0 01-5.28-.38 7.28 7.28 0 00-5.43-.86zM22.1 22.25a2.11 2.11 0 01-1 .25H2.67c-.9 0-1.07-.41-1.13-.84a2 2 0 01.25-1.19l4-7.26a5.78 5.78 0 015.77.13 7.28 7.28 0 006.79.41c1.61 2.92 3.29 5.95 3.86 7 .47.79.25 1.3-.11 1.5z"/>
    <path d="M8.53 14.7a2.32 2.32 0 100 4.64 2.32 2.32 0 000-4.64zm0 3.13a.822.822 0 01-.573-1.403.81.81 0 01.573-.237.82.82 0 110 1.64zM2.32 9.11a2.32 2.32 0 100-4.64 2.32 2.32 0 000 4.64zm0-3.11a.82.82 0 11-.18 1.63A.82.82 0 012.32 6zM21.68 4.76A2.32 2.32 0 1021.7.12a2.32 2.32 0 00-.02 4.64zm0-3.14a.82.82 0 110 1.64.82.82 0 010-1.64z"/>
  </g>
</svg>