<svg xmlns="http://www.w3.org/2000/svg" class="w-6 h-6 mr-2 text-midnight flex-shrink-0" fill="none" viewBox="0 0 24 24">
  <g clip-rule="evenodd" fill="currentColor" fill-rule="evenodd">
    <path d="M15.2 1.4a4.5 4.5 0 00-6.36 0l-.22.22-.35.35-.57-.63a4.5 4.5 0 00-6.41 6.31l6.88 7 7-6.88a4.5 4.5 0 00.03-6.37zm-1.07 5.32l-6 5.86-5.8-5.95a3.04 3.04 0 114.34-4.26L8.25 4 10 2.27a3.04 3.04 0 014.14 4.45zM22.67 16.21l-6.88-7-7 6.87a4.5 4.5 0 106.31 6.41l.22-.21.35-.35.57.58a4.5 4.5 0 006.41-6.31zm-1.08 5.32a2.998 2.998 0 01-4.3 0l-1.59-1.65L14 21.6a3.042 3.042 0 01-4.14-4.46l5.95-5.85 5.85 5.94a2.999 2.999 0 01-.07 4.3z"/>
  </g>
</svg>