<svg xmlns="http://www.w3.org/2000/svg" class="w-6 h-6 mr-2 text-midnight flex-shrink-0" fill="none" viewBox="0 0 24 24">
  <clipPath id="a">
    <path d="M0 0h24v24H0z"/>
  </clipPath>
  <g clip-path="url(#a)" fill="currentColor">
    <path d="M15.07 3.06A3.08 3.08 0 1011.2 6v18h1.5V6a3.06 3.06 0 002.37-2.94zM12 4.63a1.57 1.57 0 110-3.14 1.57 1.57 0 010 3.14zM3.07 12.19a3.05 3.05 0 00-.75 6V24h1.5v-5.79a3.05 3.05 0 00-.75-6zm0 4.63a1.57 1.57 0 11.02-3.14 1.57 1.57 0 01-.02 3.14z"/>
    <path d="M6.09 5.92A3.09 3.09 0 106 7.46a3 3 0 011.56 2.73V24H9V10.19a5.15 5.15 0 00-1.28-3.34 3.69 3.69 0 00-1.63-.93zm-3 2.13a1.57 1.57 0 11.584-.117 1.57 1.57 0 01-.604.117zM20.92 9.55a3.07 3.07 0 10-3-3.63 3.78 3.78 0 00-1.64.93A5.18 5.18 0 0015 10.19V24h1.5V10.19A3 3 0 0118 7.46a3.07 3.07 0 002.92 2.09zm0-4.63a1.57 1.57 0 11-1.57 1.56 1.56 1.56 0 011.57-1.56z"/>
    <path d="M20.92 12.19a3.05 3.05 0 00-.75 6V24h1.5v-5.79a3.05 3.05 0 00-.75-6zm0 4.63a1.57 1.57 0 110-3.14 1.57 1.57 0 010 3.14z"/>
  </g>
</svg>