<svg width="162" height="18" viewBox="0 0 162 18" fill="none" xmlns="http://www.w3.org/2000/svg">
<path d="M13.707 12.833C13.4635 13.3783 13.1638 13.8967 12.813 14.38C12.343 15.025 11.958 15.471 11.662 15.719C11.202 16.126 10.71 16.334 10.183 16.346C9.804 16.346 9.348 16.242 8.816 16.032C8.284 15.822 7.793 15.719 7.345 15.719C6.875 15.719 6.371 15.823 5.832 16.032C5.293 16.241 4.857 16.352 4.525 16.363C4.019 16.384 3.515 16.169 3.012 15.719C2.691 15.449 2.289 14.987 1.808 14.332C1.292 13.633 0.867 12.822 0.535 11.898C0.179 10.899 0 9.932 0 8.996C0 7.924 0.241 6.999 0.723 6.224C1.09239 5.61055 1.61388 5.10284 2.237 4.75C2.86035 4.39216 3.56527 4.20069 4.284 4.194C4.686 4.194 5.212 4.314 5.867 4.549C6.522 4.784 6.939 4.904 7.123 4.904C7.26 4.904 7.726 4.764 8.515 4.485C9.261 4.226 9.891 4.119 10.407 4.162C11.805 4.271 12.856 4.801 13.555 5.757C12.304 6.486 11.686 7.508 11.698 8.819C11.6936 9.30144 11.7943 9.77904 11.9933 10.2186C12.1922 10.6581 12.4846 11.049 12.85 11.364C13.1868 11.6736 13.5767 11.9199 14.001 12.091L13.708 12.833H13.707ZM10.5 0.684002C10.5 1.484 10.196 2.231 9.591 2.923C8.861 3.745 7.977 4.22 7.019 4.145C7.00628 4.0445 6.99993 3.9433 7 3.842C7 3.074 7.347 2.252 7.964 1.58C8.272 1.24 8.664 0.957002 9.139 0.731002C9.614 0.505002 10.061 0.386002 10.483 0.365002C10.4951 0.471233 10.5012 0.578078 10.501 0.685002L10.5 0.684002ZM28.797 14.551C31.391 14.551 33.156 13.184 33.586 10.856H31.844C31.492 12.215 30.375 13.02 28.805 13.02C26.735 13.02 25.422 11.356 25.422 8.723C25.422 6.114 26.75 4.434 28.797 4.434C30.328 4.434 31.531 5.379 31.844 6.825H33.578C33.281 4.473 31.352 2.903 28.797 2.903C25.648 2.903 23.633 5.153 23.633 8.723C23.633 12.317 25.633 14.551 28.797 14.551V14.551ZM38.492 14.52C40.844 14.52 42.39 12.903 42.39 10.254C42.39 7.613 40.835 5.996 38.492 5.996C36.149 5.996 34.594 7.613 34.594 10.254C34.594 12.902 36.141 14.52 38.492 14.52ZM38.492 13.129C37.172 13.129 36.312 12.082 36.312 10.254C36.312 8.434 37.171 7.387 38.492 7.387C39.813 7.387 40.672 8.434 40.672 10.254C40.672 12.082 39.82 13.129 38.492 13.129V13.129ZM43.695 14.363H45.383V9.574C45.383 8.301 46.149 7.457 47.336 7.457C48.508 7.457 49.086 8.137 49.086 9.371V14.363H50.781V9.043C50.781 7.16 49.742 6.004 47.929 6.004C46.663 6.004 45.788 6.582 45.343 7.52H45.304V6.145H43.695V14.364V14.363ZM52.906 4.2V6.145H51.711V7.481H52.906V12.2C52.906 13.786 53.554 14.419 55.219 14.419C55.594 14.419 55.969 14.388 56.156 14.341V13.005C55.9722 13.0317 55.7867 13.0448 55.601 13.044C54.914 13.044 54.601 12.724 54.601 12.013V7.481H56.164V6.145H54.602V4.2H52.907H52.906ZM58.453 4.817C58.7099 4.81674 58.9562 4.71456 59.1379 4.5329C59.3196 4.35123 59.4217 4.10492 59.422 3.848C59.422 3.309 58.992 2.879 58.453 2.879C58.3251 2.87808 58.1983 2.90245 58.0799 2.95073C57.9615 2.999 57.8537 3.07021 57.7629 3.16027C57.6721 3.25033 57.6 3.35745 57.5508 3.47548C57.5015 3.59351 57.4761 3.72011 57.476 3.848C57.476 4.379 57.914 4.817 58.453 4.817ZM57.609 14.364H59.297V6.145H57.61V14.364H57.609ZM61.023 14.364H62.711V9.575C62.711 8.302 63.477 7.458 64.664 7.458C65.836 7.458 66.414 8.138 66.414 9.372V14.364H68.109V9.044C68.109 7.161 67.07 6.005 65.257 6.005C63.991 6.005 63.116 6.583 62.671 7.521H62.632V6.145H61.023V14.364V14.364ZM76.789 6.145H75.102V10.934C75.102 12.215 74.368 13.059 73.149 13.059C71.985 13.059 71.391 12.387 71.391 11.137V6.145H69.704V11.465C69.704 13.348 70.798 14.512 72.587 14.512C73.845 14.512 74.681 13.957 75.134 12.973H75.173V14.364H76.79V6.145H76.789ZM83.906 11.95C83.679 12.669 82.969 13.153 82.008 13.153C80.656 13.153 79.797 12.208 79.797 10.778V10.676H85.602V10.098C85.602 7.606 84.18 5.996 81.899 5.996C79.579 5.996 78.094 7.715 78.094 10.293C78.094 12.887 79.555 14.52 81.969 14.52C83.852 14.52 85.274 13.45 85.508 11.95H83.906V11.95ZM81.898 7.356C83.078 7.356 83.875 8.239 83.914 9.497H79.805C79.891 8.255 80.719 7.356 81.899 7.356H81.898ZM101.008 6.145H99.336L97.836 12.614H97.797L96.078 6.145H94.453L92.742 12.614H92.711L91.211 6.145H89.524L91.782 14.364H93.524L95.235 8.208H95.274L97 14.364H98.758L101.008 6.145V6.145ZM102.938 4.817C103.195 4.81647 103.441 4.71418 103.622 4.53254C103.804 4.35091 103.906 4.10474 103.906 3.848C103.906 3.309 103.477 2.879 102.938 2.879C102.81 2.87808 102.683 2.90245 102.565 2.95073C102.446 2.999 102.339 3.07021 102.248 3.16027C102.157 3.25033 102.085 3.35745 102.036 3.47548C101.987 3.59351 101.961 3.72011 101.961 3.848C101.961 4.379 102.398 4.817 102.938 4.817ZM102.094 14.364H103.781V6.145H102.094V14.364V14.364ZM106 4.2V6.145H104.805V7.481H106V12.2C106 13.786 106.648 14.419 108.312 14.419C108.688 14.419 109.062 14.388 109.25 14.341V13.005C109.066 13.0317 108.881 13.0448 108.695 13.044C108.008 13.044 107.695 12.724 107.695 12.013V7.481H109.258V6.145H107.695V4.2H106ZM110.711 14.364H112.398V9.614C112.398 8.317 113.164 7.458 114.414 7.458C115.602 7.458 116.211 8.185 116.211 9.396V14.365H117.906V9.068C117.906 7.209 116.828 6.005 115.023 6.005C113.773 6.005 112.875 6.56 112.422 7.521H112.383V3.09H110.711V14.363V14.364ZM130.336 14.364H132.188L128.117 3.09H126.227L122.156 14.363H123.977L125.008 11.316H129.305L130.336 14.363V14.364ZM127.133 4.966H127.18L128.859 9.911H125.453L127.133 4.966ZM137.508 6.013C136.32 6.013 135.375 6.615 134.891 7.56H134.859V6.145H133.227V17.083H134.914V13.013H134.953C135.422 13.927 136.359 14.505 137.539 14.505C139.602 14.505 140.969 12.856 140.969 10.255C140.969 7.654 139.594 6.013 137.508 6.013V6.013ZM137.062 13.076C135.766 13.076 134.906 11.967 134.906 10.256C134.906 8.561 135.773 7.436 137.062 7.436C138.398 7.436 139.234 8.538 139.234 10.256C139.234 11.982 138.398 13.076 137.062 13.076ZM146.555 6.013C145.367 6.013 144.422 6.615 143.938 7.56H143.906V6.145H142.273V17.083H143.961V13.013H144C144.469 13.927 145.406 14.505 146.586 14.505C148.648 14.505 150.016 12.856 150.016 10.255C150.016 7.654 148.641 6.013 146.555 6.013V6.013ZM146.109 13.076C144.812 13.076 143.953 11.967 143.953 10.256C143.953 8.561 144.82 7.436 146.109 7.436C147.445 7.436 148.281 8.538 148.281 10.256C148.281 11.982 147.445 13.076 146.109 13.076ZM151.383 14.365H153.07V3.09H151.383V14.363V14.365ZM160.25 11.951C160.023 12.67 159.312 13.154 158.352 13.154C157 13.154 156.141 12.209 156.141 10.779V10.677H161.945V10.099C161.945 7.607 160.523 5.997 158.242 5.997C155.922 5.997 154.438 7.716 154.438 10.294C154.438 12.888 155.898 14.521 158.312 14.521C160.195 14.521 161.617 13.451 161.852 11.951H160.25V11.951ZM158.242 7.357C159.422 7.357 160.219 8.24 160.258 9.498H156.148C156.234 8.256 157.062 7.357 158.242 7.357V7.357Z" fill="black"/>
</svg>
